<svg width="36" height="48" viewBox="0 0 36 48" fill="none" xmlns="http://www.w3.org/2000/svg">
<path d="M21.5106 38.4721H13.8853C13.8853 38.4721 15.8798 32.5958 15.6573 31.9514C15.6573 31.9284 15.6573 31.9207 15.6573 31.8977C15.128 31.3607 14.8058 30.6243 14.8058 29.8034C14.8058 28.1617 16.11 26.8423 17.7286 26.8423C19.3473 26.8423 20.6514 28.1617 20.6514 29.8034C20.6514 30.6473 20.2985 31.4067 19.7385 31.9437C19.5161 32.5881 21.5106 38.4644 21.5106 38.4644V38.4721ZM35.3959 23.4362V40.7122C35.3959 44.7243 32.1585 47.9923 28.1848 47.9923H7.21112C3.22966 47.9923 0 44.7243 0 40.7122V23.4362C0 20.2832 1.99457 17.6059 4.77929 16.5933V13.0491C4.77929 5.86096 10.5712 0 17.6979 0C24.8247 0 30.6166 5.86096 30.6166 13.0567V16.6009C33.3936 17.6136 35.3959 20.2909 35.3959 23.4438V23.4362ZM9.04459 13.0567V16.1637H26.359V13.0567C26.359 8.20841 22.4772 4.2653 17.7056 4.2653C12.934 4.2653 9.04459 8.20841 9.04459 13.0567ZM31.6139 23.4438C31.6139 21.5183 30.0796 19.9533 28.1924 19.9533H7.21112C5.32396 19.9533 3.78968 21.5183 3.78968 23.4438V40.7198C3.78968 42.6454 5.32396 44.2103 7.21112 44.2103H28.1848C30.0719 44.2103 31.6062 42.6454 31.6062 40.7198V23.4438H31.6139Z" fill="#333366"/>
</svg>
