<svg width="51" height="42" viewBox="0 0 51 42" fill="none" xmlns="http://www.w3.org/2000/svg">
<path d="M33.875 9.87875C33.5539 9.3975 33.1806 9.00375 32.7379 8.715C32.3039 8.42625 31.8612 8.21625 31.4184 8.085C30.9757 7.95375 30.6285 7.8575 30.3768 7.81375C30.0556 7.735 29.7691 7.65625 29.5 7.58625V4.3575C29.7691 4.41875 30.0122 4.515 30.2292 4.655C30.4636 4.80375 30.6546 5.01375 30.8021 5.27625C30.941 5.53875 31.2014 6.23 31.2448 6.30875C31.323 6.475 31.7309 6.9125 32.408 6.965C33.1459 7.02625 33.875 6.41375 33.875 6.01125C33.875 5.2325 33.7535 4.83 33.4671 4.27875C33.1719 3.7275 32.7726 3.28125 32.2778 2.9225C31.7743 2.5725 31.2101 2.31875 30.5591 2.1525C30.2118 2.065 29.8646 2.0125 29.5 1.96875V0H27.9375V1.9775C27.5382 2.0125 27.1389 2.07375 26.7396 2.17875C26.1407 2.345 25.6025 2.59 25.125 2.93125C24.6476 3.2725 24.2657 3.70125 23.9705 4.20875C23.6754 4.71625 23.5278 5.32 23.5278 6.01125C23.5278 6.6325 23.6407 7.1575 23.875 7.58625C24.1094 8.02375 24.4132 8.3825 24.7865 8.67125C25.1598 8.96 25.5851 9.19625 26.0625 9.38C26.54 9.56375 27.0261 9.7125 27.5209 9.84375C27.6598 9.87875 27.79 9.91375 27.9289 9.94875V13.6413C27.8768 13.6325 27.816 13.6238 27.7639 13.6063C27.3993 13.51 27.0868 13.37 26.8178 13.1688C26.5487 12.9763 26.3316 12.7138 26.1754 12.3988C26.0105 12.0838 25.9844 11.6725 25.8629 11.2438C25.8021 11.0163 25.3594 10.64 24.6216 10.605C23.9445 10.57 23.3455 10.9638 23.2761 11.3488C23.1285 12.1625 23.224 12.8013 23.5365 13.405C23.849 14.0088 24.2743 14.5075 24.8039 14.9013C25.3334 15.295 25.9497 15.575 26.6441 15.7588C27.0695 15.8725 27.5035 15.9338 27.9462 15.9775V17.8325H29.5087V15.9863C30.125 15.9425 30.698 15.8638 31.2014 15.7063C31.8959 15.4963 32.4775 15.19 32.9462 14.805C33.415 14.42 33.7709 13.965 34.0052 13.4313C34.2396 12.9063 34.3612 12.3288 34.3612 11.7163C34.3612 10.9638 34.2049 10.3425 33.8837 9.8525L33.875 9.87875ZM27.1216 6.86875C26.8264 6.72875 26.6268 6.58 26.5313 6.41375C26.4271 6.2475 26.3837 6.0375 26.3837 5.775C26.3837 5.48625 26.4445 5.25 26.5747 5.0575C26.6962 4.865 26.8612 4.7075 27.0521 4.585C27.2431 4.4625 27.4601 4.375 27.6945 4.3225C27.7726 4.305 27.8507 4.305 27.9375 4.29625V7.16625C27.6164 7.07 27.3299 6.97375 27.1216 6.86875ZM31.2362 12.9238C31.0625 13.1425 30.8455 13.3175 30.5764 13.44C30.316 13.5625 30.0296 13.65 29.7344 13.6938C29.6476 13.7025 29.5782 13.7025 29.4914 13.7113V10.3688C29.7605 10.4475 30.0122 10.5263 30.2379 10.6225C30.6112 10.7713 30.915 10.9638 31.1493 11.1913C31.3837 11.4188 31.4966 11.7163 31.4966 12.0838C31.4966 12.425 31.4098 12.705 31.2362 12.9238ZM50.29 27.7113L50.2118 27.3963L50.0903 27.0638L49.9254 26.775L49.665 26.4513L49.1007 25.9175L48.6233 25.5413L47.8594 25.06L47.0955 24.6838L46.4879 24.4738L45.8368 24.3075L45.3073 24.2113L44.7344 24.15H44.3785L43.25 24.2113L42.1476 24.4738L40.4462 25.2875L38.5886 26.285L36.8872 27.2563L34.7344 28.4113C34.7344 28.4113 34.7518 28.4463 34.7171 28.4113H34.7344C34.691 28.3413 34.5174 28.1575 34.1962 27.8163C34.066 27.6763 33.7796 27.4575 33.3455 27.1513L32.9375 26.915L32.5469 26.7313C32.2171 26.6 31.9219 26.5038 31.6789 26.4425C31.4358 26.39 31.0712 26.3288 30.5938 26.2763L25.2205 25.6113C24.6216 25.2088 24.1875 24.9288 23.9098 24.7713C23.3802 24.4825 22.8855 24.29 22.4427 24.1325C21.6615 23.8525 20.4375 23.6863 18.7622 23.66C18.25 23.7038 17.9028 23.7475 17.7032 23.7825C17.1389 23.87 16.757 23.9925 16.54 24.0538C16.2101 24.1588 15.5157 24.4475 14.448 24.9288H13.4931V22.89C13.4931 21.84 12.7205 20.9913 11.757 20.9913H2.06949C1.10594 20.9913 0.333374 21.84 0.333374 22.89V40.0925C0.333374 41.1425 1.11462 41.9913 2.06949 41.9913H11.783C12.7466 41.9913 13.5191 41.1425 13.5191 40.0925V37.4763H14.7344L15.8542 37.905L16.948 38.325L22.3733 40.355L24.4046 41.125L24.882 41.2825L25.3681 41.4138L25.941 41.5363L26.375 41.6063L26.5139 41.6238L26.6962 41.65L26.8872 41.6675L27.2171 41.685L27.7553 41.7025L28.5191 41.6588L29.3525 41.5538C29.6737 41.4838 29.9167 41.4313 30.099 41.3788C30.2813 41.3263 30.5417 41.2475 30.8889 41.1338L31.5573 40.8625L32.0434 40.6175L40.0296 35.7438L48.7622 30.345L49.2309 30.0563L49.4566 29.89L49.8125 29.54L49.9688 29.3213L50.1337 29.0063L50.2292 28.7613L50.29 28.5338L50.3247 28.2888V27.9913L50.29 27.7113ZM10.9844 39.7863H2.83337V23.24H11.0018V39.7863H10.9844ZM44.448 29.8988L39.8299 32.795L32 37.6163L31.4792 37.9575L30.8108 38.3338C30.6198 38.43 30.4636 38.5 30.3334 38.5525C30.2032 38.605 30.0556 38.6575 29.8993 38.71L29.3698 38.8675L28.7882 38.99L28.3282 39.0513L27.7987 39.0863H27.3473L26.9566 39.0513L26.7657 39.025L26.5313 38.9988L26.4184 38.9725L25.9757 38.885L25.3855 38.71L24.9428 38.5525L24.4914 38.3775L22.4514 37.6075L17 35.525L15.9323 35.1138L15.29 34.8862L15.099 34.8513H13.5452V27.6238H15.0035C15.1164 27.5888 15.2205 27.5538 15.3073 27.51C15.3941 27.475 15.5243 27.405 15.698 27.3175C16.1927 27.0375 16.5139 26.88 16.6702 26.8275C16.8091 26.7838 16.974 26.7138 17.2257 26.6263C17.3212 26.5913 17.5209 26.5388 17.8247 26.46L18.1893 26.3813L18.4931 26.3375L18.8056 26.3025L19.2917 26.2763C19.448 26.2763 19.5608 26.2763 19.6302 26.2763C19.6997 26.2763 19.7952 26.2763 19.9167 26.2938L20.3768 26.3375L20.6719 26.3813L21.0452 26.46L21.3664 26.5388L21.7136 26.6438L21.9653 26.7313L22.3125 26.8713L22.6164 27.0113L22.7813 27.0988L23.033 27.2388L23.2848 27.3963L23.5886 27.6063L23.9358 27.8688L24.1702 28.0263L24.3612 28.105L24.5 28.1575L24.6302 28.1838L24.7952 28.2013L25.2726 28.2625L26.2622 28.3763L30.6112 28.9013L31.0191 28.9363L31.3837 29.0238L31.5921 29.1025L31.757 29.1725L31.9306 29.26C32.2084 29.4438 32.408 29.6013 32.5382 29.7325C32.6684 29.8638 32.8247 30.0825 33.033 30.3975L33.3021 31.1238L33.3282 31.6663H22.2084C22.0174 31.7013 21.8698 31.745 21.7743 31.7888C21.6789 31.8325 21.5313 31.9375 21.3403 32.1038C21.2101 32.2875 21.132 32.4275 21.0973 32.5413C21.0973 32.5588 21.0712 32.6375 21.0539 32.76L21.0278 33.0225C21.0452 33.215 21.0799 33.3638 21.1233 33.4688C21.1667 33.5738 21.2622 33.7225 21.4184 33.915C21.5573 34.0288 21.6702 34.1075 21.7483 34.1513C21.8264 34.195 21.9827 34.2388 22.2084 34.2913H33.5191L33.8143 34.2563C34.0834 34.2038 34.2743 34.1513 34.3785 34.1075C34.7605 33.95 34.9514 33.7575 35.0643 33.67C35.2292 33.5475 35.3941 33.3813 35.5677 33.1625C35.7761 32.7425 35.8976 32.4013 35.9323 32.13C35.9671 31.8588 35.9497 31.4038 35.8716 30.7563L36.9393 30.205L38.6407 29.2338L40.4896 28.2363L42.0695 27.3788C42.2691 27.2738 42.4254 27.195 42.5382 27.1425C42.6424 27.09 42.816 27.02 43.0417 26.9325C43.2761 26.8625 43.4584 26.81 43.5799 26.7838C43.7014 26.7575 43.875 26.74 44.1181 26.7225L44.474 26.6963L45.0556 26.7575L45.4896 26.845L46.1233 27.0463L46.6355 27.3L47.2344 27.6938L47.5382 27.9738L44.474 29.8813L44.448 29.8988Z" fill="#333366"/>
</svg>
