<svg width="40" height="42" viewBox="0 0 40 42" fill="none" xmlns="http://www.w3.org/2000/svg">
<path d="M33.5818 17.8386V8.00755C33.5818 7.55828 33.4103 7.12883 33.1135 6.79849L27.3351 0.574799C26.9987 0.21142 26.5237 0 26.029 0H7.55277C7.05805 0 6.58311 0.204814 6.2467 0.574799L0.468338 6.8051C0.164908 7.13544 0 7.56489 0 8.01416V33.5564C0 34.5408 0.798153 35.3403 1.77441 35.3403H15.5013C14.7032 34.2567 14.0831 33.0543 13.6609 31.7791H3.5752V8.97876H12.1768V13.2997C12.1768 13.8216 12.5989 14.2445 13.1201 14.2445H20.1781C20.6992 14.2445 21.1214 13.8216 21.1214 13.2997V8.97876H30.033V15.8367C31.3193 16.3058 32.5198 16.9797 33.5884 17.8386H33.5818ZM15.1451 3.71307H18.1596L18.9776 7.08919H14.3206L15.1451 3.71307ZM12.3615 7.10241H5.07256L8.33113 3.54129H13.219L12.3549 7.10241H12.3615ZM19.2282 12.3483H14.0633V8.97216H19.2282V12.3483ZM20.9169 7.10241L20.0528 3.54129H25.277L28.5356 7.10241H20.9103H20.9169ZM32.3417 19.9528C28.1926 16.471 22.0646 16.7815 18.285 20.6664C14.5053 24.5512 14.3602 30.6956 17.942 34.7588C21.5237 38.8221 27.6319 39.4365 31.9459 36.1595L39.1029 41.8877C39.3272 42.0529 39.6372 42.0264 39.8351 41.8282C40.033 41.63 40.0528 41.3195 39.8879 41.0949L34.1095 33.933C37.2625 29.5262 36.4908 23.428 32.3417 19.9462V19.9528ZM33.3245 29.3016C32.5989 32.9486 29.3997 35.5781 25.686 35.5781C23.6214 35.5781 21.6425 34.7588 20.1847 33.2921C17.5594 30.6626 17.1504 26.5399 19.215 23.4412C21.2797 20.3492 25.2375 19.1468 28.6675 20.5672C32.0976 21.9943 34.0501 25.6479 33.3245 29.2949V29.3016Z" fill="#333366"/>
</svg>
