<svg width="46" height="41" viewBox="0 0 46 41" fill="none" xmlns="http://www.w3.org/2000/svg">
<g clip-path="url(#clip0_5408_1739)">
<path d="M14.3852 14.9791C18.4931 14.9791 21.8271 11.6238 21.8271 7.48956C21.8271 3.35532 18.4931 0 14.3852 0C10.2773 0 6.94333 3.35532 6.94333 7.48956C6.94333 11.6238 10.2773 14.9791 14.3852 14.9791Z" fill="#333366"/>
<path d="M11.1788 15.6119C15.3548 15.9799 18.0934 19.4979 18.6037 23.5893C19.4032 30.0346 23.9278 33.835 29.7623 34.3486C31.5823 34.5112 32.9176 36.1204 32.7815 37.9607C32.6199 40.0321 30.8934 40.9993 29.4136 40.9993C21.3933 40.4173 15.4653 35.6496 13.118 29.7864L10.8896 30.6338C12.1994 34.049 14.4277 36.8651 17.3109 39.0135C18.0253 39.6127 18.7398 40.2204 19.4542 40.8196C13.1945 40.8367 6.92631 40.8624 0.666626 40.8795L2.35912 22.9987C2.42716 22.314 2.74185 19.8574 4.80006 17.8545C7.38558 15.3465 10.6685 15.5691 11.1788 15.6119Z" fill="#333366"/>
<path d="M30.4341 18.832V25.6796C30.4341 26.1504 30.8169 26.5356 31.2846 26.5356H37.2382C37.7059 26.5356 38.0887 26.1504 38.0887 25.6796V18.832H30.4341ZM36.7449 25.0719H31.8885V19.688H36.7449V25.0719Z" fill="#333366"/>
<path fill-rule="evenodd" clip-rule="evenodd" d="M24.8294 19.5504V30.3439C23.9108 29.7019 23.1198 28.9059 22.4905 27.9644V18.3777C22.4905 17.7358 23.0178 17.2051 23.6642 17.2051H44.4844C45.1223 17.2051 45.6496 17.7272 45.6496 18.3777V26.107C45.6496 26.1669 45.6666 26.2268 45.6666 26.2953V37.2343C45.6666 37.9704 45.1903 38.5182 44.4674 38.5182C40.9719 38.484 37.4763 38.4583 33.9807 38.4241C34.0488 38.27 34.1253 38.0731 34.1849 37.842C34.2444 37.5938 34.2614 37.3713 34.2699 37.2001C34.2699 37.0118 34.2444 36.7635 34.1849 36.4982C34.1168 36.1986 34.0148 35.9589 33.9212 35.7706C37.0511 35.8049 40.1809 35.8477 43.3022 35.8819V19.5675H35.5287L32.0756 19.5589H24.8209H24.8294V19.5504Z" fill="#333366"/>
</g>
<defs>
<clipPath id="clip0_5408_1739">
<rect width="45" height="41" fill="white" transform="translate(0.666626)"/>
</clipPath>
</defs>
</svg>
