<svg width="44" height="43" viewBox="0 0 44 43" fill="none" xmlns="http://www.w3.org/2000/svg">
<path d="M42.971 8.67935L35.9615 0.436448C35.7232 0.158708 35.3608 0 34.9637 0H8.62361C8.22647 0 7.86408 0.158708 7.6258 0.436448L0.651084 8.67935C0.452515 8.91742 0.333374 9.19516 0.333374 9.51753V41.6857C0.333374 42.4048 0.934044 43 1.64889 43H42.0179C42.7377 43 43.3334 42.3999 43.3334 41.6857V9.51753C43.2937 9.20012 43.1745 8.92238 42.9759 8.67935M9.21931 2.54925H34.363L39.6251 8.75871H26.0778L25.0403 4.33968C24.9608 3.98258 24.6431 3.73956 24.2807 3.73956H19.3364C18.979 3.73956 18.6612 3.97762 18.5818 4.33968L17.5046 8.75871H3.95725L9.21931 2.54925ZM24.6828 10.4301V13.7332H22.2107C21.054 13.7332 19.9768 13.9713 18.9839 14.3284V10.4251H24.6828V10.4301ZM19.1825 8.63968L19.9817 5.29689H23.6453L24.4445 8.63968H19.1825ZM14.6799 32.5253V23.6078C14.6799 22.5316 15.5586 21.619 16.6756 21.619H20.5824V17.1603C20.5824 16.0841 21.4611 15.2062 22.4936 15.1666H28.9471V35.9474H14.6799V32.5253ZM14.9579 20.6221C15.3551 19.1491 16.2337 17.8745 17.3507 16.9223C17.8273 16.5255 18.3882 16.1634 18.9442 15.8857C19.1031 15.8063 19.2619 15.727 19.4208 15.6873C19.2222 16.1238 19.1031 16.5999 19.1031 17.1206V20.146H16.6309C16.0352 20.1857 15.4742 20.3444 14.9579 20.6221ZM17.3507 40.3714H2.92469V10.3508H17.3507V15.1666C14.8835 16.7586 13.2056 19.5459 13.2056 22.73V37.4601H17.3507V40.3664V40.3714ZM24.6828 40.3714H18.9442V37.4254H24.6431V40.3714H24.6828ZM40.7023 40.3714H26.2763V37.4254H30.4215V13.7382H26.2763V10.3557H40.7023V40.3764V40.3714Z" fill="#333366"/>
<path d="M18.1896 26.9551H17.3904V33.5663H18.1896V26.9551Z" fill="#333366"/>
<path d="M20.1803 26.9551H19.3016V33.5663H20.1803V26.9551Z" fill="#333366"/>
<path d="M23.6503 26.9551H21.6149V33.5663H23.6503V26.9551Z" fill="#333366"/>
<path d="M26.2366 26.9551H25.08V33.5663H26.2366V26.9551Z" fill="#333366"/>
</svg>
