<svg width="61" height="39" viewBox="0 0 61 39" fill="none" xmlns="http://www.w3.org/2000/svg">
<path d="M39.5625 29.8394C39.2949 30.6543 39.143 31.5274 39.143 32.4369C39.143 32.8444 39.1792 33.2519 39.237 33.6448H25.264C25.3219 33.2519 25.3653 32.8444 25.3653 32.4369C25.3653 31.5274 25.2134 30.6616 24.9386 29.8394H39.5697H39.5625ZM60.6305 22.5487L60.6666 31.7894C60.6666 32.2914 60.4714 32.7789 60.1097 33.1355C59.7626 33.492 59.2708 33.703 58.7717 33.703H55.3942C55.4593 33.2955 55.5027 32.8735 55.5027 32.4442C55.5027 31.5493 55.358 30.7052 55.0977 29.8976H56.8696L56.8479 24.1931H7.09623L6.47424 29.8466H9.42506C9.15746 30.6616 9.00558 31.5347 9.00558 32.4442C9.00558 32.8517 9.04175 33.2591 9.09961 33.6521H2.53259C1.49835 33.6521 0.666626 32.808 0.666626 31.7748C0.666626 30.7416 1.50558 29.8903 2.53259 29.8903H2.65554L5.78717 1.68806C5.88842 0.727612 6.70568 0 7.66036 0H41.4863C41.6309 0 41.7684 0.0218284 41.8985 0.0509328C42.5495 0.109142 43.1497 0.494776 43.439 1.13507L49.2973 13.8392L59.7987 20.9916C60.3122 21.3409 60.6305 21.9302 60.6305 22.556V22.5487ZM41.1319 14.2757H45.3339L41.1319 5.15877V14.2757ZM7.71822 18.5614H24.1936L24.2515 7.18881C24.2515 6.62127 24.6999 6.17743 25.2568 6.17743L36.1199 6.19925C36.6768 6.19925 37.1252 6.65037 37.1252 7.21063V18.5468H49.4926L46.7515 16.6841C46.5924 16.575 46.455 16.4513 46.3392 16.2985H40.1338C39.5769 16.2985 39.1285 15.8474 39.1285 15.2871V3.80541H9.35997L7.72545 18.5687L7.71822 18.5614ZM26.2549 8.20019L26.2042 18.4959H35.1146V8.22202L26.2549 8.20019ZM54.7722 22.1631L52.4506 20.5841H7.50125L7.32767 22.1631H54.7795H54.7722ZM47.3228 39C43.7211 39 40.7992 36.0532 40.7992 32.4369C40.7992 28.8207 43.7283 25.8739 47.3228 25.8739C50.9174 25.8739 53.8465 28.8134 53.8465 32.4369C53.8465 36.0604 50.9246 39 47.3228 39ZM47.3228 36.1478C49.3552 36.1478 51.0114 34.4815 51.0114 32.4369C51.0114 30.3924 49.3552 28.7261 47.3228 28.7261C45.2905 28.7261 43.6343 30.3851 43.6343 32.4369C43.6343 34.4888 45.2905 36.1478 47.3228 36.1478ZM17.1782 39C13.5765 39 10.6546 36.0532 10.6546 32.4369C10.6546 28.8207 13.5837 25.8739 17.1782 25.8739C20.7727 25.8739 23.7018 28.8134 23.7018 32.4369C23.7018 36.0604 20.7799 39 17.1782 39ZM17.1782 36.1478C19.2105 36.1478 20.8667 34.4815 20.8667 32.4369C20.8667 30.3924 19.2177 28.7261 17.1782 28.7261C15.1387 28.7261 13.4897 30.3851 13.4897 32.4369C13.4897 34.4888 15.1459 36.1478 17.1782 36.1478Z" fill="#333366"/>
</svg>
