<svg width="48" height="50" viewBox="0 0 48 50" fill="none" xmlns="http://www.w3.org/2000/svg">
<path d="M46.0417 44.1999C46.0417 46.3215 44.3263 48.0399 42.2084 48.0399H5.79171C3.67379 48.0399 1.95837 46.3215 1.95837 44.1999V19.2399C1.95837 17.1183 3.67379 15.3999 5.79171 15.3999H12.8259C13.8417 15.3999 14.8192 15.8031 15.538 16.5231L20.0038 20.9967C20.7225 21.7167 21.7 22.1199 22.7159 22.1199H42.2659C44.355 22.1199 46.0417 23.8095 46.0417 25.9023V44.1999Z" stroke="#333366" stroke-width="3" stroke-linecap="round" stroke-linejoin="round"/>
<path d="M6.75 15.4002V7.72021H12.5H37.4167V22.1202" stroke="#333366" stroke-width="3" stroke-linecap="round" stroke-linejoin="round"/>
<path d="M12.5 7.71996V1.95996H43.1667V22.2352" stroke="#333366" stroke-width="3" stroke-linecap="round" stroke-linejoin="round"/>
<path d="M20 13L32 13" stroke="#333366" stroke-width="2" stroke-linecap="round" stroke-linejoin="round"/>
<path d="M24 17L32 17" stroke="#333366" stroke-width="2" stroke-linecap="round" stroke-linejoin="round"/>
</svg>
