<svg width="48" height="48" viewBox="0 0 48 48" fill="none" xmlns="http://www.w3.org/2000/svg">
<path d="M32.2 11.29C31.8917 10.74 31.5333 10.29 31.1083 9.96C30.6917 9.63 30.2667 9.39 29.8417 9.24C29.4167 9.09 29.0833 8.98 28.8417 8.93C28.5333 8.84 28.2583 8.75 28 8.67V4.98C28.2583 5.05 28.4917 5.16 28.7 5.32C28.925 5.49 29.1083 5.73 29.25 6.03C29.3833 6.33 29.6333 7.12 29.675 7.21C29.75 7.4 30.1417 7.9 30.7917 7.96C31.5 8.03 32.2 7.33 32.2 6.87C32.2 5.98 32.0833 5.52 31.8083 4.89C31.525 4.26 31.1417 3.75 30.6667 3.34C30.1833 2.94 29.6417 2.65 29.0167 2.46C28.6833 2.36 28.35 2.3 28 2.25V0H26.5V2.26C26.1167 2.3 25.7333 2.37 25.35 2.49C24.775 2.68 24.2583 2.96 23.8 3.35C23.3417 3.74 22.975 4.23 22.6917 4.81C22.4083 5.39 22.2667 6.08 22.2667 6.87C22.2667 7.58 22.375 8.18 22.6 8.67C22.825 9.17 23.1167 9.58 23.475 9.91C23.8333 10.24 24.2417 10.51 24.7 10.72C25.1583 10.93 25.625 11.1 26.1 11.25C26.2333 11.29 26.3583 11.33 26.4917 11.37V15.59C26.4417 15.58 26.3833 15.57 26.3333 15.55C25.9833 15.44 25.6833 15.28 25.425 15.05C25.1667 14.83 24.9583 14.53 24.8083 14.17C24.65 13.81 24.625 13.34 24.5083 12.85C24.45 12.59 24.025 12.16 23.3167 12.12C22.6667 12.08 22.0917 12.53 22.025 12.97C21.8833 13.9 21.975 14.63 22.275 15.32C22.575 16.01 22.9833 16.58 23.4917 17.03C24 17.48 24.5917 17.8 25.2583 18.01C25.6667 18.14 26.0833 18.21 26.5083 18.26V20.38H28.0083V18.27C28.6 18.22 29.15 18.13 29.6333 17.95C30.3 17.71 30.8583 17.36 31.3083 16.92C31.7583 16.48 32.1 15.96 32.325 15.35C32.55 14.75 32.6667 14.09 32.6667 13.39C32.6667 12.53 32.5167 11.82 32.2083 11.26L32.2 11.29ZM25.7167 7.85C25.4333 7.69 25.2417 7.52 25.15 7.33C25.05 7.14 25.0083 6.9 25.0083 6.6C25.0083 6.27 25.0667 6 25.1917 5.78C25.3083 5.56 25.4667 5.38 25.65 5.24C25.8333 5.1 26.0417 5 26.2667 4.94C26.3417 4.92 26.4167 4.92 26.5 4.91V8.19C26.1917 8.08 25.9167 7.97 25.7167 7.85ZM29.6667 14.77C29.5 15.02 29.2917 15.22 29.0333 15.36C28.7833 15.5 28.5083 15.6 28.225 15.65C28.1417 15.66 28.075 15.66 27.9917 15.67V11.85C28.25 11.94 28.4917 12.03 28.7083 12.14C29.0667 12.31 29.3583 12.53 29.5833 12.79C29.8083 13.05 29.9167 13.39 29.9167 13.81C29.9167 14.2 29.8333 14.52 29.6667 14.77ZM47.9583 31.67L47.8833 31.31L47.7667 30.93L47.6083 30.6L47.3583 30.23L46.8167 29.62L46.3583 29.19L45.625 28.64L44.8917 28.21L44.3083 27.97L43.6833 27.78L43.175 27.67L42.625 27.6H42.2833L41.2 27.67L40.1417 27.97L38.5083 28.9L36.725 30.04L35.0917 31.15L33.025 32.47C33.025 32.47 33.0417 32.51 33.0083 32.47H33.025C32.9833 32.39 32.8167 32.18 32.5083 31.79C32.3833 31.63 32.1083 31.38 31.6917 31.03L31.3 30.76L30.925 30.55C30.6083 30.4 30.325 30.29 30.0917 30.22C29.8583 30.16 29.5083 30.09 29.05 30.03L23.8917 29.27C23.3167 28.81 22.9 28.49 22.6333 28.31C22.125 27.98 21.65 27.76 21.225 27.58C20.475 27.26 19.3 27.07 17.6917 27.04C17.2 27.09 16.8667 27.14 16.675 27.18C16.1333 27.28 15.7667 27.42 15.5583 27.49C15.2417 27.61 14.575 27.94 13.55 28.49H12.6333V26.16C12.6333 24.96 11.8917 23.99 10.9667 23.99H1.66667C0.741667 23.99 0 24.96 0 26.16V45.82C0 47.02 0.75 47.99 1.66667 47.99H10.9917C11.9167 47.99 12.6583 47.02 12.6583 45.82V42.83H13.825L14.9 43.32L15.95 43.8L21.1583 46.12L23.1083 47L23.5667 47.18L24.0333 47.33L24.5833 47.47L25 47.55L25.1333 47.57L25.3083 47.6L25.4917 47.62L25.8083 47.64L26.325 47.66L27.0583 47.61L27.8583 47.49C28.1667 47.41 28.4 47.35 28.575 47.29C28.75 47.23 29 47.14 29.3333 47.01L29.975 46.7L30.4417 46.42L38.1083 40.85L46.4917 34.68L46.9417 34.35L47.1583 34.16L47.5 33.76L47.65 33.51L47.8083 33.15L47.9 32.87L47.9583 32.61L47.9917 32.33V31.99L47.9583 31.67ZM10.225 45.47H2.4V26.56H10.2417V45.47H10.225ZM42.35 34.17L37.9167 37.48L30.4 42.99L29.9 43.38L29.2583 43.81C29.075 43.92 28.925 44 28.8 44.06C28.675 44.12 28.5333 44.18 28.3833 44.24L27.875 44.42L27.3167 44.56L26.875 44.63L26.3667 44.67H25.9333L25.5583 44.63L25.375 44.6L25.15 44.57L25.0417 44.54L24.6167 44.44L24.05 44.24L23.625 44.06L23.1917 43.86L21.2333 42.98L16 40.6L14.975 40.13L14.3583 39.87L14.175 39.83H12.6833V31.57H14.0833C14.1917 31.53 14.2917 31.49 14.375 31.44C14.4583 31.4 14.5833 31.32 14.75 31.22C15.225 30.9 15.5333 30.72 15.6833 30.66C15.8167 30.61 15.975 30.53 16.2167 30.43C16.3083 30.39 16.5 30.33 16.7917 30.24L17.1417 30.15L17.4333 30.1L17.7333 30.06L18.2 30.03C18.35 30.03 18.4583 30.03 18.525 30.03C18.5917 30.03 18.6833 30.03 18.8 30.05L19.2417 30.1L19.525 30.15L19.8833 30.24L20.1917 30.33L20.525 30.45L20.7667 30.55L21.1 30.71L21.3917 30.87L21.55 30.97L21.7917 31.13L22.0333 31.31L22.325 31.55L22.6583 31.85L22.8833 32.03L23.0667 32.12L23.2 32.18L23.325 32.21L23.4833 32.23L23.9417 32.3L24.8917 32.43L29.0667 33.03L29.4583 33.07L29.8083 33.17L30.0083 33.26L30.1667 33.34L30.3333 33.44C30.6 33.65 30.7917 33.83 30.9167 33.98C31.0417 34.13 31.1917 34.38 31.3917 34.74L31.65 35.57L31.675 36.19H21C20.8167 36.23 20.675 36.28 20.5833 36.33C20.4917 36.38 20.35 36.5 20.1667 36.69C20.0417 36.9 19.9667 37.06 19.9333 37.19C19.9333 37.21 19.9083 37.3 19.8917 37.44L19.8667 37.74C19.8833 37.96 19.9167 38.13 19.9583 38.25C20 38.37 20.0917 38.54 20.2417 38.76C20.375 38.89 20.4833 38.98 20.5583 39.03C20.6333 39.08 20.7833 39.13 21 39.19H31.8583L32.1417 39.15C32.4 39.09 32.5833 39.03 32.6833 38.98C33.05 38.8 33.2333 38.58 33.3417 38.48C33.5 38.34 33.6583 38.15 33.825 37.9C34.025 37.42 34.1417 37.03 34.175 36.72C34.2083 36.41 34.1917 35.89 34.1167 35.15L35.1417 34.52L36.775 33.41L38.55 32.27L40.0667 31.29C40.2583 31.17 40.4083 31.08 40.5167 31.02C40.6167 30.96 40.7833 30.88 41 30.78C41.225 30.7 41.4 30.64 41.5167 30.61C41.6333 30.58 41.8 30.56 42.0333 30.54L42.375 30.51L42.9333 30.58L43.35 30.68L43.9583 30.91L44.45 31.2L45.025 31.65L45.3167 31.97L42.375 34.15L42.35 34.17Z" fill="#333366"/>
</svg>
