<svg width="50" height="48" viewBox="0 0 50 48" fill="none" xmlns="http://www.w3.org/2000/svg">
<path fill-rule="evenodd" clip-rule="evenodd" d="M10.9026 19.7419L7.87782 19.5323C9.72665 11.0716 17.2952 4.72356 26.361 4.72356C36.8168 4.72356 45.2766 13.1634 45.2766 23.555C45.2766 33.9467 36.8168 42.3865 26.361 42.3865V47.11C39.4078 47.11 50 36.573 50 23.555C50 10.5371 39.4078 0.00012207 26.361 0.00012207C14.8043 0.00012207 5.17577 8.26606 3.12523 19.2029L0 18.9863L4.91752 27.0074L10.9026 19.7419ZM24.0496 9.79871V23.555V24.8762L25.1755 25.5676L34.6846 31.4066L37.1562 27.3814L28.773 22.2338V9.79871H24.0496ZM7.26173 31.1807C7.66241 30.2172 7.20525 29.1136 6.24065 28.7156C5.27605 28.3176 4.16928 28.776 3.76861 29.7395C3.36794 30.703 3.8251 31.8067 4.7897 32.2047C5.75429 32.6026 6.86106 32.1442 7.26173 31.1807ZM10.3916 37.7251C10.3916 38.7686 9.54565 39.6145 8.50218 39.6145C7.45871 39.6145 6.61281 38.7686 6.61281 37.7251C6.61281 36.6816 7.45871 35.8357 8.50218 35.8357C9.54565 35.8357 10.3916 36.6816 10.3916 37.7251ZM14.1703 44.3379C15.2138 44.3379 16.0597 43.492 16.0597 42.4485C16.0597 41.4051 15.2138 40.5592 14.1703 40.5592C13.1268 40.5592 12.2809 41.4051 12.2809 42.4485C12.2809 43.492 13.1268 44.3379 14.1703 44.3379ZM22.2427 42.8882C23.2073 43.2862 23.6644 44.3898 23.2638 45.3533C22.8631 46.3168 21.7563 46.7752 20.7917 46.3773C19.8271 45.9793 19.37 44.8756 19.7706 43.9121C20.1713 42.9487 21.2781 42.4902 22.2427 42.8882Z" fill="#333366"/>
</svg>
