<svg width="32" height="32" viewBox="0 0 32 32" fill="none" xmlns="http://www.w3.org/2000/svg">
<rect y="32" width="32" height="32" rx="16" transform="rotate(-90 0 32)" fill="#333366"/>
<path d="M24.1765 18.0588H11.8471L15.3882 21.4706C15.9647 22.0235 15.9765 22.9412 15.4235 23.5176C15.4 23.5412 15.3882 23.5529 15.3647 23.5765C14.7412 24.1529 13.7647 24.1294 13.1647 23.5176L6 16.2353L13.1529 9.16469C13.7647 8.56469 14.7294 8.54116 15.3647 9.12939C15.9294 9.6588 15.9765 10.5412 15.4471 11.1176C15.4235 11.1529 15.3882 11.1765 15.3647 11.2L11.8471 14.4117L24.1765 14.4117C25.1882 14.4117 26 15.2235 26 16.2353C26 17.247 25.1882 18.0588 24.1765 18.0588Z" fill="white"/>
</svg>
