<svg width="48" height="40" viewBox="0 0 48 40" fill="none" xmlns="http://www.w3.org/2000/svg">
<path d="M47.7326 7.38196L41.6701 0.387858C41.4588 0.143339 41.1441 0 40.8164 0H17.9978C17.6701 0 17.3554 0.143339 17.1441 0.387858L11.0815 7.38196C10.9091 7.5801 10.8142 7.83305 10.8142 8.09022V18.1577H13.0564V8.79005H25.2159V12.3735C25.2159 12.7445 25.5264 13.0481 25.9058 13.0481H32.2271C32.6065 13.0481 32.917 12.7445 32.917 12.3735V8.79005H35.4524V14.5236L38.8027 16.231L42.3902 14.5236V8.79005H45.7578V34.2369H31.4078V36.4292H46.8789C47.1764 36.4292 47.461 36.3153 47.6723 36.1088C47.8836 35.9022 48 35.6239 48 35.3331V8.09022C48 7.82884 47.9051 7.5801 47.7326 7.38196ZM31.5372 11.6948H26.5957V8.86594H31.5372V11.6948ZM26.7812 7.35245L27.4754 4.52361H30.6575L31.3518 7.35245H26.7812ZM32.7919 7.43676L31.8735 3.69309C31.8002 3.38954 31.5242 3.17454 31.2052 3.17454H26.9321C26.613 3.17454 26.337 3.38954 26.2637 3.69309L25.3453 7.43676H13.9748L18.5196 2.19224H40.2989L44.848 7.43676H32.7962H32.7919Z" fill="#333366"/>
<path d="M28.3033 20.1772H1.03485C0.461373 20.1772 0 20.6283 0 21.189V38.9884C0 39.5491 0.461373 40.0002 1.03485 40.0002H28.3033C28.8768 40.0002 29.3381 39.5491 29.3381 38.9884V21.189C29.3381 20.6283 28.8768 20.1772 28.3033 20.1772ZM27.2684 37.9766H2.06971V22.2009H16.6439V27.6056L19.9942 29.313L23.5817 27.6056V22.2009H27.2684V37.9766Z" fill="#333366"/>
</svg>
