<svg width="60" height="54" viewBox="0 0 60 54" fill="none" xmlns="http://www.w3.org/2000/svg">
<g clip-path="url(#clip0_4670_7798)">
<path d="M28.6182 52.0342H58.8437" stroke="#333666" stroke-width="2" stroke-miterlimit="10"/>
<path d="M51.0503 0.266082C49.1077 -0.231135 46.8067 -0.0114344 45.1879 0.925182C42.9909 -0.0808134 39.8689 0.0348183 37.9263 1.31833C34.7465 -0.971177 27.9822 0.0348181 27.9822 4.33632V48.9701C27.9822 53.3526 35.0241 54.3239 38.1229 51.8609C40.0771 53.0288 43.0718 53.1213 45.1994 52.1385C46.8182 53.0751 49.1193 53.2948 51.0618 52.7976C54.4498 53.6879 58.9824 52.3697 58.9824 48.843V4.22069C58.9824 0.705482 54.4498 -0.612719 51.0618 0.266082H51.0503Z" fill="#333666"/>
<path d="M28.202 53.1905V1.15625H58.8437V53.1905" stroke="#333666" stroke-width="2" stroke-miterlimit="10"/>
<path d="M38.3311 53.6762V38.8291H48.1248V53.6068" stroke="white" stroke-width="1.5" stroke-miterlimit="10"/>
<path d="M43.3262 38.9678V53.9999" stroke="white" stroke-width="1.09" stroke-miterlimit="10"/>
<path d="M24.8255 16.9287H23.6693" stroke="white" stroke-width="0.25" stroke-miterlimit="10"/>
<path d="M33.4978 6.66064H31.1852V14.7549H33.4978V6.66064Z" stroke="white" stroke-width="0.75" stroke-miterlimit="10"/>
<path d="M40.7592 6.66064H38.4467V14.7549H40.7592V6.66064Z" stroke="white" stroke-width="0.75" stroke-miterlimit="10"/>
<path d="M48.0208 6.66064H45.7082V14.7549H48.0208V6.66064Z" stroke="white" stroke-width="0.75" stroke-miterlimit="10"/>
<path d="M55.2707 6.66064H52.9581V14.7549H55.2707V6.66064Z" stroke="white" stroke-width="0.75" stroke-miterlimit="10"/>
<path d="M33.4978 23.1382H31.1852V31.2324H33.4978V23.1382Z" stroke="white" stroke-width="0.75" stroke-miterlimit="10"/>
<path d="M40.7592 23.1382H38.4467V31.2324H40.7592V23.1382Z" stroke="white" stroke-width="0.75" stroke-miterlimit="10"/>
<path d="M48.0208 23.1382H45.7082V31.2324H48.0208V23.1382Z" stroke="white" stroke-width="0.75" stroke-miterlimit="10"/>
<path d="M55.2707 23.1382H52.9581V31.2324H55.2707V23.1382Z" stroke="white" stroke-width="0.75" stroke-miterlimit="10"/>
<path d="M33.4978 38.3203H31.1852V49.8835H33.4978V38.3203Z" stroke="white" stroke-width="0.9" stroke-miterlimit="10"/>
<path d="M55.4673 38.3203H53.1547V49.8835H55.4673V38.3203Z" stroke="white" stroke-width="0.9" stroke-miterlimit="10"/>
<path d="M27.1612 38.0312V51.6989C27.1612 51.9996 26.9184 52.2539 26.6062 52.2539H3.6307C3.33007 52.2539 3.07568 52.0111 3.07568 51.6989V38.0312" fill="white"/>
<path d="M27.1613 38.0312V51.6989C27.1613 51.9996 26.9184 52.2539 26.6062 52.2539H3.6307C3.33007 52.2539 3.07568 52.0111 3.07568 51.6989V38.0312" stroke="#343466" stroke-width="1.72" stroke-miterlimit="10" stroke-linecap="round"/>
<path d="M3.07571 27.0923L0.994385 32.4923V35.3137C0.994385 36.8747 2.25474 38.1351 3.81574 38.1351C5.37673 38.1351 6.63709 36.8747 6.63709 35.3137V32.4923L7.93214 27.0923H3.07571Z" fill="white" stroke="#343466" stroke-width="1.72" stroke-miterlimit="10"/>
<path d="M7.94373 27.0923L6.64868 32.4923V35.3137C6.64868 36.8747 7.90904 38.1351 9.47003 38.1351C11.031 38.1351 12.2914 36.8747 12.2914 35.3137V32.4923L12.8117 27.0923H7.93217H7.94373Z" fill="white" stroke="#343466" stroke-width="1.72" stroke-miterlimit="10"/>
<path d="M22.8945 41.1416H16.3615C16.0377 41.1416 15.7718 41.4076 15.7718 41.7313V47.9754C15.7718 48.2992 16.0377 48.5652 16.3615 48.5652H22.8945C23.2183 48.5652 23.4843 48.2992 23.4843 47.9754V41.7313C23.4843 41.4076 23.2183 41.1416 22.8945 41.1416Z" fill="white" stroke="#343466" stroke-width="1.29" stroke-miterlimit="10"/>
<path d="M6.76428 52.2538V41.7313C6.76428 41.4076 7.03023 41.1416 7.35399 41.1416H12.4995C12.8233 41.1416 13.0892 41.4076 13.0892 41.7313V52.2538" fill="white"/>
<path d="M6.76428 52.2538V41.7313C6.76428 41.4076 7.03023 41.1416 7.35399 41.1416H12.4995C12.8233 41.1416 13.0892 41.4076 13.0892 41.7313V52.2538" fill="white"/>
<path d="M6.76428 52.2538V41.7313C6.76428 41.4076 7.03023 41.1416 7.35399 41.1416H12.4995C12.8233 41.1416 13.0892 41.4076 13.0892 41.7313V52.2538" stroke="#343466" stroke-width="1.29" stroke-miterlimit="10"/>
<path d="M22.8945 41.1416H16.3615C16.0377 41.1416 15.7718 41.4076 15.7718 41.7313V47.9754C15.7718 48.2992 16.0377 48.5652 16.3615 48.5652H22.8945C23.2183 48.5652 23.4843 48.2992 23.4843 47.9754V41.7313C23.4843 41.4076 23.2183 41.1416 22.8945 41.1416Z" stroke="#343466" stroke-width="0.86" stroke-miterlimit="10" stroke-linecap="round"/>
<path d="M27.1729 27.0923H22.3049L23.5999 32.4923V35.3137C23.5999 36.8747 24.8603 38.1351 26.4213 38.1351C27.9823 38.1351 29.2426 36.8747 29.2426 35.3137V32.4923L27.1613 27.0923H27.1729Z" fill="white"/>
<path d="M22.3049 27.0923H17.4369L17.9572 32.4923V35.3137C17.9572 36.8747 19.2176 38.1351 20.7786 38.1351C22.3396 38.1351 23.5999 36.8747 23.5999 35.3137V32.4923L22.3049 27.0923Z" fill="white" stroke="#343466" stroke-width="1.72" stroke-miterlimit="10"/>
<path d="M17.4253 27.0923H12.8232L12.3029 32.4923V35.3137C12.3029 36.8747 13.5633 38.1351 15.1243 38.1351C16.6853 38.1351 17.9456 36.8747 17.9456 35.3137V32.4923L17.4253 27.0923Z" fill="white" stroke="#343466" stroke-width="1.72" stroke-miterlimit="10"/>
<path d="M7.82807 27.0923H3.07571L0.994385 32.4923V35.3137C0.994385 36.8747 2.25474 38.1351 3.81574 38.1351C5.37673 38.1351 6.63709 36.8747 6.63709 35.3137V32.4923L7.71244 28.0173C7.71244 27.7051 7.74713 27.3929 7.81651 27.0923H7.82807Z" stroke="#343466" stroke-width="0.86" stroke-miterlimit="10" stroke-linecap="round"/>
<path d="M7.94373 27.0923L6.64868 32.4923V35.3137C6.64868 36.8747 7.90904 38.1351 9.47003 38.1351C11.031 38.1351 12.2914 36.8747 12.2914 35.3137V32.4923L12.8117 27.0923H7.93217H7.94373Z" stroke="#343466" stroke-width="0.86" stroke-miterlimit="10" stroke-linecap="round"/>
<path d="M27.1729 27.0923H22.3049L23.5999 32.4923V35.3137C23.5999 36.8747 24.8603 38.1351 26.4213 38.1351C27.9823 38.1351 29.2426 36.8747 29.2426 35.3137V32.4923L27.1613 27.0923H27.1729Z" stroke="#343466" stroke-width="1.72" stroke-miterlimit="10" stroke-linecap="round"/>
<path d="M22.3049 27.0923H17.4369L17.9572 32.4923V35.3137C17.9572 36.8747 19.2176 38.1351 20.7786 38.1351C22.3396 38.1351 23.5999 36.8747 23.5999 35.3137V32.4923L22.3049 27.0923Z" stroke="#343466" stroke-width="0.86" stroke-miterlimit="10" stroke-linecap="round"/>
<path d="M17.4253 27.0923H12.8232L12.3029 32.4923V35.3137C12.3029 36.8747 13.5633 38.1351 15.1243 38.1351C16.6853 38.1351 17.9456 36.8747 17.9456 35.3137V32.4923L17.4253 27.0923Z" stroke="#343466" stroke-width="0.86" stroke-miterlimit="10" stroke-linecap="round"/>
<path d="M3.07568 27.0925V24.9418C3.07568 24.6411 3.3185 24.3867 3.6307 24.3867H26.6062C26.9069 24.3867 27.1612 24.6295 27.1612 24.9418V27.0925" fill="white"/>
<path d="M3.07568 27.0925V24.9418C3.07568 24.6411 3.3185 24.3867 3.6307 24.3867H26.6062C26.9069 24.3867 27.1613 24.6295 27.1613 24.9418V27.0925" stroke="#343466" stroke-width="1.72" stroke-miterlimit="10" stroke-linecap="round"/>
<path d="M6.76428 52.2538V41.7313C6.76428 41.4076 7.03023 41.1416 7.35399 41.1416H12.4995C12.8233 41.1416 13.0892 41.4076 13.0892 41.7313V52.2538" stroke="#343466" stroke-width="0.78" stroke-miterlimit="10" stroke-linecap="round"/>
<path d="M6.76428 52.2538V41.7313C6.76428 41.4076 7.03023 41.1416 7.35399 41.1416H12.4995C12.8233 41.1416 13.0892 41.4076 13.0892 41.7313V52.2538" stroke="#343466" stroke-width="0.86" stroke-miterlimit="10" stroke-linecap="round"/>
<path d="M0.994385 32.481H29.2542" stroke="#343466" stroke-width="0.86" stroke-miterlimit="10" stroke-linecap="round"/>
<path d="M43.361 43.7319H43.3494C42.2574 43.7319 41.3721 44.6172 41.3721 45.7092V47.5015C41.3721 48.5936 42.2574 49.4788 43.3494 49.4788H43.361C44.453 49.4788 45.3382 48.5936 45.3382 47.5015V45.7092C45.3382 44.6172 44.453 43.7319 43.361 43.7319Z" stroke="white" stroke-width="0.5" stroke-miterlimit="10"/>
</g>
<defs>
<clipPath id="clip0_4670_7798">
<rect width="60" height="54" fill="white"/>
</clipPath>
</defs>
</svg>
