<svg width="32" height="32" viewBox="0 0 32 32" fill="none" xmlns="http://www.w3.org/2000/svg">
<rect x="32" width="32" height="32" rx="16" transform="rotate(90 32 0)" fill="#333366"/>
<path d="M7.82353 13.9412H20.1529L16.6118 10.5294C16.0353 9.97649 16.0235 9.05884 16.5765 8.48237C16.6 8.45884 16.6118 8.44708 16.6353 8.42355C17.2588 7.84708 18.2353 7.87061 18.8353 8.48237L26 15.7647L18.8471 22.8353C18.2353 23.4353 17.2706 23.4588 16.6353 22.8706C16.0706 22.3412 16.0235 21.4588 16.5529 20.8824C16.5765 20.8471 16.6118 20.8235 16.6353 20.8L20.1529 17.5883H7.82353C6.81176 17.5883 6 16.7765 6 15.7647C6 14.753 6.81176 13.9412 7.82353 13.9412Z" fill="white"/>
</svg>
