<svg width="17" height="16" viewBox="0 0 17 16" fill="none" xmlns="http://www.w3.org/2000/svg">
<path d="M2.11663 9.20607C2.49594 12.764 5.68678 15.3427 9.24411 14.9659C12.8014 14.5865 15.3797 11.3952 15.003 7.83725C14.6237 4.27934 11.4328 1.70063 7.87551 2.08C4.31818 2.45681 1.73988 5.64816 2.11663 9.20607Z" stroke="#333366" stroke-width="2" stroke-miterlimit="10"/>
<rect width="3.60834" height="4.37357" transform="matrix(0.892927 -0.450202 0.396015 0.918244 10.5439 2.95312)" fill="white"/>
<rect width="3.35775" height="4.42653" transform="matrix(0.892927 -0.450202 0.396015 0.918244 0.274902 10.2461)" fill="white"/>
<path d="M3.56627 14.9984L2.47119 11.625L5.64847 11.7274L3.56627 14.9984Z" fill="#333366"/>
<path d="M11.9069 0.625L12.9998 3.99844L9.82471 3.896L11.9069 0.625Z" fill="#333366"/>
</svg>
